<svg width="50" height="50" viewBox="0 0 50 50" fill="none" xmlns="http://www.w3.org/2000/svg">
<path d="M0 12.8C0 8.31958 0 6.07937 0.871948 4.36808C1.63893 2.86278 2.86278 1.63893 4.36808 0.871948C6.07937 0 8.31958 0 12.8 0H37.2C41.6804 0 43.9206 0 45.6319 0.871948C47.1372 1.63893 48.3611 2.86278 49.1281 4.36808C50 6.07937 50 8.31958 50 12.8V37.2C50 41.6804 50 43.9206 49.1281 45.6319C48.3611 47.1372 47.1372 48.3611 45.6319 49.1281C43.9206 50 41.6804 50 37.2 50H12.8C8.31958 50 6.07937 50 4.36808 49.1281C2.86278 48.3611 1.63893 47.1372 0.871948 45.6319C0 43.9206 0 41.6804 0 37.2V12.8Z" fill="#0077FF"/>
<path fill-rule="evenodd" clip-rule="evenodd" d="M39 25C39 30.3667 30.3667 39 25 39C19.6333 39 11 30.3667 11 25C11 19.6333 19.6333 11 25 11C30.3667 11 39 19.6333 39 25ZM30.6 25C30.6 27.1 27.1 30.6 25 30.6C22.9 30.6 19.4 27.1 19.4 25C19.4 22.9 22.9 19.4 25 19.4C27.1 19.4 30.6 22.9 30.6 25Z" fill="white"/>
</svg>
